<?xml version="1.0" encoding="utf-8"?>
<!-- created with bpmn-js / http://bpmn.io -->
<!DOCTYPE svg PUBLIC "-//W3C//DTD SVG 1.1//EN" "http://www.w3.org/Graphics/SVG/1.1/DTD/svg11.dtd">
<svg xmlns="http://www.w3.org/2000/svg" xmlns:xlink="http://www.w3.org/1999/xlink" width="2425" height="550" viewBox="130 75 2425 550" version="1.1"><defs><pattern id="djs-grid-pattern-641461" width="10" height="10" patternUnits="userSpaceOnUse"><circle cx="0.5" cy="0.5" r="0.5" style="fill: rgb(204, 204, 204);"/></pattern></defs><g class="djs-group"><g class="djs-element djs-shape" data-element-id="Participant_0x9ixr8" style="display: block;" transform="matrix(1 0 0 1 130 80)"><g class="djs-visual"><rect x="0" y="0" width="2420" height="540" rx="0" ry="0" style="stroke-linecap: round; stroke-linejoin: round; stroke: rgb(34, 36, 42); stroke-width: 1.5px; fill: white; fill-opacity: 0.95;"/><path style="fill: none; stroke-linecap: round; stroke-linejoin: round; stroke: rgb(34, 36, 42); stroke-width: 1.5px;" d="M30,0L30,540"/><text lineHeight="1.2" class="djs-label" style="font-family: Arial, sans-serif; font-size: 12px; font-weight: normal; fill: rgb(34, 36, 42);" transform="matrix(-1.83697e-16 -1 1 -1.83697e-16 0 540)"><tspan x="270" y="18.6"/></text></g><rect class="djs-hit djs-hit-no-move" x="0" y="0" width="2420" height="540" style="fill: none; stroke-opacity: 0; stroke: white; stroke-width: 15px;"/><rect class="djs-hit djs-hit-click-stroke" x="0" y="0" width="2420" height="540" style="fill: none; stroke-opacity: 0; stroke: white; stroke-width: 15px;"/><rect class="djs-hit djs-hit-all" x="0" y="0" width="30" height="540" style="fill: none; stroke-opacity: 0; stroke: white; stroke-width: 15px;"/></g><g class="djs-children"><g class="djs-group"><g class="djs-element djs-shape selected" data-element-id="Lane_18r9tvb" style="display: block;" transform="matrix(1 0 0 1 160 315)"><g class="djs-visual"><rect x="0" y="0" width="2390" height="305" rx="0" ry="0" style="stroke-linecap: round; stroke-linejoin: round; stroke: rgb(34, 36, 42); stroke-width: 1.5px; fill: white; fill-opacity: 0.25;"/><text lineHeight="1.2" class="djs-label" style="font-family: Arial, sans-serif; font-size: 12px; font-weight: normal; fill: rgb(34, 36, 42);" transform="matrix(-1.83697e-16 -1 1 -1.83697e-16 0 305)"><tspan x="132.49609375" y="18.6">System</tspan></text></g><rect class="djs-hit djs-hit-no-move" x="0" y="0" width="2390" height="305" style="fill: none; stroke-opacity: 0; stroke: white; stroke-width: 15px;"/><rect class="djs-hit djs-hit-click-stroke" x="0" y="0" width="2390" height="305" style="fill: none; stroke-opacity: 0; stroke: white; stroke-width: 15px;"/><rect class="djs-hit djs-hit-all" x="0" y="0" width="30" height="305" style="fill: none; stroke-opacity: 0; stroke: white; stroke-width: 15px;"/><rect x="-5" y="-5" rx="4" width="2400" height="315" class="djs-outline" style="fill: none;"/></g></g><g class="djs-group"><g class="djs-element djs-shape" data-element-id="Lane_0uca4ve" style="display: block;" transform="matrix(1 0 0 1 160 80)"><g class="djs-visual"><rect x="0" y="0" width="2390" height="235" rx="0" ry="0" style="stroke-linecap: round; stroke-linejoin: round; stroke: rgb(34, 36, 42); stroke-width: 1.5px; fill: white; fill-opacity: 0.25;"/><text lineHeight="1.2" class="djs-label" style="font-family: Arial, sans-serif; font-size: 12px; font-weight: normal; fill: rgb(34, 36, 42);" transform="matrix(-1.83697e-16 -1 1 -1.83697e-16 0 235)"><tspan x="103.4873046875" y="18.6">Shop</tspan></text></g><rect class="djs-hit djs-hit-no-move" x="0" y="0" width="2390" height="235" style="fill: none; stroke-opacity: 0; stroke: white; stroke-width: 15px;"/><rect class="djs-hit djs-hit-click-stroke" x="0" y="0" width="2390" height="235" style="fill: none; stroke-opacity: 0; stroke: white; stroke-width: 15px;"/><rect class="djs-hit djs-hit-all" x="0" y="0" width="30" height="235" style="fill: none; stroke-opacity: 0; stroke: white; stroke-width: 15px;"/><rect x="-5" y="-5" rx="4" width="2400" height="245" class="djs-outline" style="fill: none;"/></g></g><g class="djs-group"><g class="djs-element djs-shape" data-element-id="Activity_0wu9s7b" style="display: block;" transform="matrix(1 0 0 1 320 160)"><g class="djs-visual"><rect x="0" y="0" width="100" height="80" rx="10" ry="10" style="stroke-linecap: round; stroke-linejoin: round; stroke: rgb(34, 36, 42); stroke-width: 2px; fill: white; fill-opacity: 0.95;"/><text lineHeight="1.2" class="djs-label" style="font-family: Arial, sans-serif; font-size: 12px; font-weight: normal; fill: rgb(34, 36, 42);"><tspan x="19.9853515625" y="29.200000000000003">Đăng ký tài </tspan><tspan x="16.6513671875" y="43.6">khoản SĐT / </tspan><tspan x="35.662109375" y="58">email</tspan></text></g><rect class="djs-hit djs-hit-all" x="0" y="0" width="100" height="80" style="fill: none; stroke-opacity: 0; stroke: white; stroke-width: 15px;"/></g></g><g class="djs-group"><g class="djs-element djs-shape" data-element-id="StartEvent_184fwgi" style="display: block;" transform="matrix(1 0 0 1 212 182)"><g class="djs-visual"><circle cx="18" cy="18" r="18" style="stroke-linecap: round; stroke-linejoin: round; stroke: rgb(34, 36, 42); stroke-width: 2px; fill: white; fill-opacity: 0.95;"/></g><rect class="djs-hit djs-hit-all" x="0" y="0" width="36" height="36" style="fill: none; stroke-opacity: 0; stroke: white; stroke-width: 15px;"/></g></g><g class="djs-group"><g class="djs-element djs-shape" data-element-id="StartEvent_184fwgi_label" style="display: block;" transform="matrix(1 0 0 1 188 225)"><g class="djs-visual"><text lineHeight="1.2" class="djs-label" style="font-family: Arial, sans-serif; font-size: 11px; font-weight: normal; fill: rgb(34, 36, 42);"><tspan x="3.77392578125" y="9.899999999999999">Muốn bán hàng </tspan><tspan x="0.4169921875" y="23.099999999999998">trên nền tảng mẹ</tspan><tspan x="33.1376953125" y="36.3">bỉm</tspan></text></g><rect class="djs-hit djs-hit-all" x="0" y="0" width="84" height="40" style="fill: none; stroke-opacity: 0; stroke: white; stroke-width: 15px;"/></g></g><g class="djs-group"><g class="djs-element djs-shape" data-element-id="Activity_1qzodu7" style="display: block;" transform="matrix(1 0 0 1 400 400)"><g class="djs-visual"><rect x="0" y="0" width="100" height="80" rx="10" ry="10" style="stroke-linecap: round; stroke-linejoin: round; stroke: rgb(34, 36, 42); stroke-width: 2px; fill: white; fill-opacity: 0.95;"/><text lineHeight="1.2" class="djs-label" style="font-family: Arial, sans-serif; font-size: 12px; font-weight: normal; fill: rgb(34, 36, 42);"><tspan x="15.98046875" y="36.4">Gửi mã OTP </tspan><tspan x="26.9755859375" y="50.8">xác thực</tspan></text></g><rect class="djs-hit djs-hit-all" x="0" y="0" width="100" height="80" style="fill: none; stroke-opacity: 0; stroke: white; stroke-width: 15px;"/></g></g><g class="djs-group"><g class="djs-element djs-shape" data-element-id="Activity_0b7d1p5" style="display: block;" transform="matrix(1 0 0 1 560 160)"><g class="djs-visual"><rect x="0" y="0" width="100" height="80" rx="10" ry="10" style="stroke-linecap: round; stroke-linejoin: round; stroke: rgb(34, 36, 42); stroke-width: 2px; fill: white; fill-opacity: 0.95;"/><text lineHeight="1.2" class="djs-label" style="font-family: Arial, sans-serif; font-size: 12px; font-weight: normal; fill: rgb(34, 36, 42);"><tspan x="10.759765625" y="29.200000000000003">Nhập mã OTP, </tspan><tspan x="17.6474609375" y="43.6">kích hoạt tài </tspan><tspan x="33.65234375" y="58">khoản</tspan></text></g><rect class="djs-hit djs-hit-all" x="0" y="0" width="100" height="80" style="fill: none; stroke-opacity: 0; stroke: white; stroke-width: 15px;"/></g></g><g class="djs-group"><g class="djs-element djs-shape" data-element-id="Activity_0s0dj2c" style="display: block;" transform="matrix(1 0 0 1 720 160)"><g class="djs-visual"><rect x="0" y="0" width="100" height="80" rx="10" ry="10" style="stroke-linecap: round; stroke-linejoin: round; stroke: rgb(34, 36, 42); stroke-width: 2px; fill: white; fill-opacity: 0.95;"/><text lineHeight="1.2" class="djs-label" style="font-family: Arial, sans-serif; font-size: 12px; font-weight: normal; fill: rgb(34, 36, 42);"><tspan x="13.9765625" y="22">Thiết lập gian </tspan><tspan x="14.7119140625" y="36.4">hàng (giấy tờ </tspan><tspan x="9.30078125" y="50.8">kinh doanh, địa</tspan><tspan x="8.6357421875" y="65.19999999999999">chỉ, ngân hàng)</tspan></text></g><rect class="djs-hit djs-hit-all" x="0" y="0" width="100" height="80" style="fill: none; stroke-opacity: 0; stroke: white; stroke-width: 15px;"/></g></g><g class="djs-group"><g class="djs-element djs-shape" data-element-id="Activity_1mrx11m" style="display: block;" transform="matrix(1 0 0 1 860 400)"><g class="djs-visual"><rect x="0" y="0" width="100" height="80" rx="10" ry="10" style="stroke-linecap: round; stroke-linejoin: round; stroke: rgb(34, 36, 42); stroke-width: 2px; fill: white; fill-opacity: 0.95;"/><text lineHeight="1.2" class="djs-label" style="font-family: Arial, sans-serif; font-size: 12px; font-weight: normal; fill: rgb(34, 36, 42);"><tspan x="19.9853515625" y="29.200000000000003">Kiểm duyệt </tspan><tspan x="14.9697265625" y="43.6">danh tính, hồ </tspan><tspan x="15.119140625" y="58">sơ và giấy tờ</tspan></text></g><rect class="djs-hit djs-hit-all" x="0" y="0" width="100" height="80" style="fill: none; stroke-opacity: 0; stroke: white; stroke-width: 15px;"/><rect x="-5" y="-5" rx="14" width="110" height="90" class="djs-outline" style="fill: none;"/></g></g><g class="djs-group"><g class="djs-element djs-shape" data-element-id="Gateway_1npginq" style="display: block;" transform="matrix(1 0 0 1 1075 415)"><g class="djs-visual"><polygon points="25,0 50,25 25,50 0,25" style="stroke-linecap: round; stroke-linejoin: round; stroke: rgb(34, 36, 42); stroke-width: 2px; fill: white; fill-opacity: 0.95;"/><path d="m 16,15 7.42857142857143,9.714285714285715 -7.42857142857143,9.714285714285715 3.428571428571429,0 5.714285714285715,-7.464228571428572 5.714285714285715,7.464228571428572 3.428571428571429,0 -7.42857142857143,-9.714285714285715 7.42857142857143,-9.714285714285715 -3.428571428571429,0 -5.714285714285715,7.464228571428572 -5.714285714285715,-7.464228571428572 -3.428571428571429,0 z" style="fill: rgb(34, 36, 42); stroke-linecap: round; stroke-linejoin: round; stroke: rgb(34, 36, 42); stroke-width: 1px;"/></g><rect class="djs-hit djs-hit-all" x="0" y="0" width="50" height="50" style="fill: none; stroke-opacity: 0; stroke: white; stroke-width: 15px;"/><rect x="2" y="2" rx="4" width="46" height="46" class="djs-outline" style="transform-box: fill-box; transform: rotate(45deg); transform-origin: center center; fill: none;"/></g></g><g class="djs-group"><g class="djs-element djs-shape" data-element-id="Gateway_1npginq_label" style="display: block;" transform="matrix(1 0 0 1 1128 430)"><g class="djs-visual"><text lineHeight="1.2" class="djs-label" style="font-family: Arial, sans-serif; font-size: 11px; font-weight: normal; fill: rgb(34, 36, 42);"><tspan x="0.0908203125" y="9.899999999999999">Đạt yêu cầu?</tspan></text></g><rect class="djs-hit djs-hit-all" x="0" y="0" width="65" height="14" style="fill: none; stroke-opacity: 0; stroke: white; stroke-width: 15px;"/><rect x="-5" y="-5" rx="4" width="75" height="24" class="djs-outline" style="fill: none;"/></g></g><g class="djs-group"><g class="djs-element djs-shape" data-element-id="Activity_1xc9ebl" style="display: block;" transform="matrix(1 0 0 1 1190 320)"><g class="djs-visual"><rect x="0" y="0" width="100" height="80" rx="10" ry="10" style="stroke-linecap: round; stroke-linejoin: round; stroke: rgb(34, 36, 42); stroke-width: 2px; fill: white; fill-opacity: 0.95;"/><text lineHeight="1.2" class="djs-label" style="font-family: Arial, sans-serif; font-size: 12px; font-weight: normal; fill: rgb(34, 36, 42);"><tspan x="8.9609375" y="36.4">Gửi yêu cầu bổ</tspan><tspan x="36.9892578125" y="50.8">sung</tspan></text></g><rect class="djs-hit djs-hit-all" x="0" y="0" width="100" height="80" style="fill: none; stroke-opacity: 0; stroke: white; stroke-width: 15px;"/></g></g><g class="djs-group"><g class="djs-element djs-shape" data-element-id="Activity_14tir6z" style="display: block;" transform="matrix(1 0 0 1 1190 480)"><g class="djs-visual"><rect x="0" y="0" width="100" height="80" rx="10" ry="10" style="stroke-linecap: round; stroke-linejoin: round; stroke: rgb(34, 36, 42); stroke-width: 2px; fill: white; fill-opacity: 0.95;"/><text lineHeight="1.2" class="djs-label" style="font-family: Arial, sans-serif; font-size: 12px; font-weight: normal; fill: rgb(34, 36, 42);"><tspan x="9.30078125" y="36.4">Cấp quyền bán</tspan><tspan x="36.65234375" y="50.8">hàng</tspan></text></g><rect class="djs-hit djs-hit-all" x="0" y="0" width="100" height="80" style="fill: none; stroke-opacity: 0; stroke: white; stroke-width: 15px;"/></g></g><g class="djs-group"><g class="djs-element djs-shape" data-element-id="Activity_16cwtp5" style="display: block;" transform="matrix(1 0 0 1 1390 160)"><g class="djs-visual"><rect x="0" y="0" width="100" height="80" rx="10" ry="10" style="stroke-linecap: round; stroke-linejoin: round; stroke: rgb(34, 36, 42); stroke-width: 2px; fill: white; fill-opacity: 0.95;"/><text lineHeight="1.2" class="djs-label" style="font-family: Arial, sans-serif; font-size: 12px; font-weight: normal; fill: rgb(34, 36, 42);"><tspan x="7.296875" y="36.4">Nhận thông báo</tspan><tspan x="23.64453125" y="50.8">phê duyệt</tspan></text></g><rect class="djs-hit djs-hit-all" x="0" y="0" width="100" height="80" style="fill: none; stroke-opacity: 0; stroke: white; stroke-width: 15px;"/></g></g><g class="djs-group"><g class="djs-element djs-shape" data-element-id="Activity_0ih48ar" style="display: block;" transform="matrix(1 0 0 1 1570 160)"><g class="djs-visual"><rect x="0" y="0" width="100" height="80" rx="10" ry="10" style="stroke-linecap: round; stroke-linejoin: round; stroke: rgb(34, 36, 42); stroke-width: 2px; fill: white; fill-opacity: 0.95;"/><text lineHeight="1.2" class="djs-label" style="font-family: Arial, sans-serif; font-size: 12px; font-weight: normal; fill: rgb(34, 36, 42);"><tspan x="7.6396484375" y="36.4">Đăng sản phẩm </tspan><tspan x="7.9765625" y="50.8">(tên, ảnh, giá...)</tspan></text></g><rect class="djs-hit djs-hit-all" x="0" y="0" width="100" height="80" style="fill: none; stroke-opacity: 0; stroke: white; stroke-width: 15px;"/></g></g><g class="djs-group"><g class="djs-element djs-shape" data-element-id="Activity_154p0lp" style="display: block;" transform="matrix(1 0 0 1 1700 400)"><g class="djs-visual"><rect x="0" y="0" width="100" height="80" rx="10" ry="10" style="stroke-linecap: round; stroke-linejoin: round; stroke: rgb(34, 36, 42); stroke-width: 2px; fill: white; fill-opacity: 0.95;"/><text lineHeight="1.2" class="djs-label" style="font-family: Arial, sans-serif; font-size: 12px; font-weight: normal; fill: rgb(34, 36, 42);"><tspan x="8.64453125" y="36.4">Kiểm duyệt sản</tspan><tspan x="34.9912109375" y="50.8">phẩm</tspan></text></g><rect class="djs-hit djs-hit-all" x="0" y="0" width="100" height="80" style="fill: none; stroke-opacity: 0; stroke: white; stroke-width: 15px;"/></g></g><g class="djs-group"><g class="djs-element djs-shape" data-element-id="Gateway_09raaxo" style="display: block;" transform="matrix(1 0 0 1 1905 415)"><g class="djs-visual"><polygon points="25,0 50,25 25,50 0,25" style="stroke-linecap: round; stroke-linejoin: round; stroke: rgb(34, 36, 42); stroke-width: 2px; fill: white; fill-opacity: 0.95;"/><path d="m 16,15 7.42857142857143,9.714285714285715 -7.42857142857143,9.714285714285715 3.428571428571429,0 5.714285714285715,-7.464228571428572 5.714285714285715,7.464228571428572 3.428571428571429,0 -7.42857142857143,-9.714285714285715 7.42857142857143,-9.714285714285715 -3.428571428571429,0 -5.714285714285715,7.464228571428572 -5.714285714285715,-7.464228571428572 -3.428571428571429,0 z" style="fill: rgb(34, 36, 42); stroke-linecap: round; stroke-linejoin: round; stroke: rgb(34, 36, 42); stroke-width: 1px;"/></g><rect class="djs-hit djs-hit-all" x="0" y="0" width="50" height="50" style="fill: none; stroke-opacity: 0; stroke: white; stroke-width: 15px;"/></g></g><g class="djs-group"><g class="djs-element djs-shape" data-element-id="Gateway_09raaxo_label" style="display: block;" transform="matrix(1 0 0 1 1967 430)"><g class="djs-visual"><text lineHeight="1.2" class="djs-label" style="font-family: Arial, sans-serif; font-size: 11px; font-weight: normal; fill: rgb(34, 36, 42);"><tspan x="0.0908203125" y="9.899999999999999">Đạt yêu cầu?</tspan></text></g><rect class="djs-hit djs-hit-all" x="0" y="0" width="65" height="14" style="fill: none; stroke-opacity: 0; stroke: white; stroke-width: 15px;"/></g></g><g class="djs-group"><g class="djs-element djs-shape" data-element-id="Activity_1oa37zu" style="display: block;" transform="matrix(1 0 0 1 2090 340)"><g class="djs-visual"><rect x="0" y="0" width="100" height="80" rx="10" ry="10" style="stroke-linecap: round; stroke-linejoin: round; stroke: rgb(34, 36, 42); stroke-width: 2px; fill: white; fill-opacity: 0.95;"/><text lineHeight="1.2" class="djs-label" style="font-family: Arial, sans-serif; font-size: 12px; font-weight: normal; fill: rgb(34, 36, 42);"><tspan x="18.3037109375" y="36.4">Từ chối yêu </tspan><tspan x="25.3115234375" y="50.8">cầu đăng</tspan></text></g><rect class="djs-hit djs-hit-all" x="0" y="0" width="100" height="80" style="fill: none; stroke-opacity: 0; stroke: white; stroke-width: 15px;"/></g></g><g class="djs-group"><g class="djs-element djs-shape" data-element-id="Activity_1a1pjo6" style="display: block;" transform="matrix(1 0 0 1 2090 500)"><g class="djs-visual"><rect x="0" y="0" width="100" height="80" rx="10" ry="10" style="stroke-linecap: round; stroke-linejoin: round; stroke: rgb(34, 36, 42); stroke-width: 2px; fill: white; fill-opacity: 0.95;"/><text lineHeight="1.2" class="djs-label" style="font-family: Arial, sans-serif; font-size: 12px; font-weight: normal; fill: rgb(34, 36, 42);"><tspan x="9.30078125" y="29.200000000000003">đăng công khai </tspan><tspan x="7.6572265625" y="43.6">(lập chỉ mục tìm</tspan><tspan x="35.333984375" y="58">kiếm)</tspan></text></g><rect class="djs-hit djs-hit-all" x="0" y="0" width="100" height="80" style="fill: none; stroke-opacity: 0; stroke: white; stroke-width: 15px;"/></g></g><g class="djs-group"><g class="djs-element djs-shape" data-element-id="Activity_00tzsv1" style="display: block;" transform="matrix(1 0 0 1 2270 500)"><g class="djs-visual"><rect x="0" y="0" width="100" height="80" rx="10" ry="10" style="stroke-linecap: round; stroke-linejoin: round; stroke: rgb(34, 36, 42); stroke-width: 2px; fill: white; fill-opacity: 0.95;"/><text lineHeight="1.2" class="djs-label" style="font-family: Arial, sans-serif; font-size: 12px; font-weight: normal; fill: rgb(34, 36, 42);"><tspan x="9.6376953125" y="29.200000000000003">Sản phẩm hiển </tspan><tspan x="11.0234375" y="43.6">thị người dùng </tspan><tspan x="20.31640625" y="58">có thể mua</tspan></text></g><rect class="djs-hit djs-hit-all" x="0" y="0" width="100" height="80" style="fill: none; stroke-opacity: 0; stroke: white; stroke-width: 15px;"/></g></g><g class="djs-group"><g class="djs-element djs-shape" data-element-id="Event_1h33lha" style="display: block;" transform="matrix(1 0 0 1 2472 522)"><g class="djs-visual"><circle cx="18" cy="18" r="18" style="stroke-linecap: round; stroke-linejoin: round; stroke: rgb(34, 36, 42); stroke-width: 4px; fill: white; fill-opacity: 0.95;"/></g><rect class="djs-hit djs-hit-all" x="0" y="0" width="36" height="36" style="fill: none; stroke-opacity: 0; stroke: white; stroke-width: 15px;"/></g></g><g class="djs-group"><g class="djs-element djs-shape" data-element-id="Event_1h33lha_label" style="display: block;" transform="matrix(1 0 0 1 2470 565)"><g class="djs-visual"><text lineHeight="1.2" class="djs-label" style="font-family: Arial, sans-serif; font-size: 11px; font-weight: normal; fill: rgb(34, 36, 42);"><tspan x="0.32080078125" y="9.899999999999999">Kết thúc</tspan></text></g><rect class="djs-hit djs-hit-all" x="0" y="0" width="41" height="14" style="fill: none; stroke-opacity: 0; stroke: white; stroke-width: 15px;"/></g></g><g class="djs-group"><g class="djs-element djs-connection" data-element-id="Flow_14a90sy" style="display: block;"><g class="djs-visual"><defs><marker id="marker-dnirt1w5baf7s9der747mr2kc" viewBox="0 0 20 20" refX="11" refY="10" markerWidth="10" markerHeight="10" orient="auto"><path d="M 1 5 L 11 10 L 1 15 Z" style="stroke-linecap: round; stroke-linejoin: round; stroke: rgb(34, 36, 42); stroke-width: 1px; fill: rgb(34, 36, 42);"/></marker></defs><path data-corner-radius="5" style="fill: none; stroke-linecap: round; stroke-linejoin: round; stroke: rgb(34, 36, 42); stroke-width: 2px; marker-end: url('#marker-dnirt1w5baf7s9der747mr2kc');" d="M248,200L320,200"/></g><path d="M248,200L320,200" class="djs-hit djs-hit-stroke" style="fill: none; stroke-opacity: 0; stroke: white; stroke-width: 15px;"/></g></g><g class="djs-group"><g class="djs-element djs-connection" data-element-id="Flow_1rjcxwh" style="display: block;"><g class="djs-visual"><defs><marker id="marker-6jladzfjbg0ujzj8tq4xerg31" viewBox="0 0 20 20" refX="11" refY="10" markerWidth="10" markerHeight="10" orient="auto"><path d="M 1 5 L 11 10 L 1 15 Z" style="stroke-linecap: round; stroke-linejoin: round; stroke: rgb(34, 36, 42); stroke-width: 1px; fill: rgb(34, 36, 42);"/></marker></defs><path data-corner-radius="5" style="fill: none; stroke-linecap: round; stroke-linejoin: round; stroke: rgb(34, 36, 42); stroke-width: 2px; marker-end: url('#marker-6jladzfjbg0ujzj8tq4xerg31');" d="M420,200L445,200C447.5,200,450,202.5,450,205L450,400"/></g><path d="M420,200L450,200L450,400" class="djs-hit djs-hit-stroke" style="fill: none; stroke-opacity: 0; stroke: white; stroke-width: 15px;"/></g></g><g class="djs-group"><g class="djs-element djs-connection" data-element-id="Flow_1vielk9" style="display: block;"><g class="djs-visual"><defs><marker id="marker-9p3cxxp0uvqfkbrkz38p5f44n" viewBox="0 0 20 20" refX="11" refY="10" markerWidth="10" markerHeight="10" orient="auto"><path d="M 1 5 L 11 10 L 1 15 Z" style="stroke-linecap: round; stroke-linejoin: round; stroke: rgb(34, 36, 42); stroke-width: 1px; fill: rgb(34, 36, 42);"/></marker></defs><path data-corner-radius="5" style="fill: none; stroke-linecap: round; stroke-linejoin: round; stroke: rgb(34, 36, 42); stroke-width: 2px; marker-end: url('#marker-9p3cxxp0uvqfkbrkz38p5f44n');" d="M500,440L605,440C607.5,440,610,437.5,610,435L610,240"/></g><path d="M500,440L610,440L610,240" class="djs-hit djs-hit-stroke" style="fill: none; stroke-opacity: 0; stroke: white; stroke-width: 15px;"/></g></g><g class="djs-group"><g class="djs-element djs-connection" data-element-id="Flow_1ux4avz" style="display: block;"><g class="djs-visual"><defs><marker id="marker-2jchyqsqxruz10ff8inqi0hjg" viewBox="0 0 20 20" refX="11" refY="10" markerWidth="10" markerHeight="10" orient="auto"><path d="M 1 5 L 11 10 L 1 15 Z" style="stroke-linecap: round; stroke-linejoin: round; stroke: rgb(34, 36, 42); stroke-width: 1px; fill: rgb(34, 36, 42);"/></marker></defs><path data-corner-radius="5" style="fill: none; stroke-linecap: round; stroke-linejoin: round; stroke: rgb(34, 36, 42); stroke-width: 2px; marker-end: url('#marker-2jchyqsqxruz10ff8inqi0hjg');" d="M660,200L720,200"/></g><path d="M660,200L720,200" class="djs-hit djs-hit-stroke" style="fill: none; stroke-opacity: 0; stroke: white; stroke-width: 15px;"/></g></g><g class="djs-group"><g class="djs-element djs-connection" data-element-id="Flow_1jze764" style="display: block;"><g class="djs-visual"><defs><marker id="marker-03aposu75y0laqrwxepu2hc4a" viewBox="0 0 20 20" refX="11" refY="10" markerWidth="10" markerHeight="10" orient="auto"><path d="M 1 5 L 11 10 L 1 15 Z" style="stroke-linecap: round; stroke-linejoin: round; stroke: rgb(34, 36, 42); stroke-width: 1px; fill: rgb(34, 36, 42);"/></marker></defs><path data-corner-radius="5" style="fill: none; stroke-linecap: round; stroke-linejoin: round; stroke: rgb(34, 36, 42); stroke-width: 2px; marker-end: url('#marker-03aposu75y0laqrwxepu2hc4a');" d="M1240,320L1240,115C1240,112.5,1237.5,110,1235,110L775,110C772.5,110,770,112.5,770,115L770,160"/></g><path d="M1240,320L1240,110L770,110L770,160" class="djs-hit djs-hit-stroke" style="fill: none; stroke-opacity: 0; stroke: white; stroke-width: 15px;"/></g></g><g class="djs-group"><g class="djs-element djs-connection" data-element-id="Flow_0ngmb7a" style="display: block;"><g class="djs-visual"><defs><marker id="marker-88li3s7gbkzjgjf685c0jevme" viewBox="0 0 20 20" refX="11" refY="10" markerWidth="10" markerHeight="10" orient="auto"><path d="M 1 5 L 11 10 L 1 15 Z" style="stroke-linecap: round; stroke-linejoin: round; stroke: rgb(34, 36, 42); stroke-width: 1px; fill: rgb(34, 36, 42);"/></marker></defs><path data-corner-radius="5" style="fill: none; stroke-linecap: round; stroke-linejoin: round; stroke: rgb(34, 36, 42); stroke-width: 2px; marker-end: url('#marker-88li3s7gbkzjgjf685c0jevme');" d="M820,199L905,199C907.5,199,910,201.5,910,204L910,400"/></g><path d="M820,199L910,199L910,400" class="djs-hit djs-hit-stroke" style="fill: none; stroke-opacity: 0; stroke: white; stroke-width: 15px;"/></g></g><g class="djs-group"><g class="djs-element djs-connection" data-element-id="Flow_0j28xtr" style="display: block;"><g class="djs-visual"><defs><marker id="marker-dp1c5oid167fic9or1m7zq6bx" viewBox="0 0 20 20" refX="11" refY="10" markerWidth="10" markerHeight="10" orient="auto"><path d="M 1 5 L 11 10 L 1 15 Z" style="stroke-linecap: round; stroke-linejoin: round; stroke: rgb(34, 36, 42); stroke-width: 1px; fill: rgb(34, 36, 42);"/></marker></defs><path data-corner-radius="5" style="fill: none; stroke-linecap: round; stroke-linejoin: round; stroke: rgb(34, 36, 42); stroke-width: 2px; marker-end: url('#marker-dp1c5oid167fic9or1m7zq6bx');" d="M1100,415L1100,365C1100,362.5,1102.5,360,1105,360L1190,360"/></g><path d="M1100,415L1100,360L1190,360" class="djs-hit djs-hit-stroke" style="fill: none; stroke-opacity: 0; stroke: white; stroke-width: 15px;"/></g></g><g class="djs-group"><g class="djs-element djs-shape" data-element-id="Flow_0j28xtr_label" style="display: block;" transform="matrix(1 0 0 1 1114 346)"><g class="djs-visual"><text lineHeight="1.2" class="djs-label" style="font-family: Arial, sans-serif; font-size: 11px; font-weight: normal; fill: rgb(34, 36, 42);"><tspan x="0.09619140625" y="9.899999999999999">Không</tspan></text></g><rect class="djs-hit djs-hit-all" x="0" y="0" width="32" height="14" style="fill: none; stroke-opacity: 0; stroke: white; stroke-width: 15px;"/></g></g><g class="djs-group"><g class="djs-element djs-connection" data-element-id="Flow_1sayfdj" style="display: block;"><g class="djs-visual"><defs><marker id="marker-7nctq4cfpb0iwk8te2v7rhxxm" viewBox="0 0 20 20" refX="11" refY="10" markerWidth="10" markerHeight="10" orient="auto"><path d="M 1 5 L 11 10 L 1 15 Z" style="stroke-linecap: round; stroke-linejoin: round; stroke: rgb(34, 36, 42); stroke-width: 1px; fill: rgb(34, 36, 42);"/></marker></defs><path data-corner-radius="5" style="fill: none; stroke-linecap: round; stroke-linejoin: round; stroke: rgb(34, 36, 42); stroke-width: 2px; marker-end: url('#marker-7nctq4cfpb0iwk8te2v7rhxxm');" d="M1100,465L1100,515C1100,517.5,1102.5,520,1105,520L1190,520"/></g><path d="M1100,465L1100,520L1190,520" class="djs-hit djs-hit-stroke" style="fill: none; stroke-opacity: 0; stroke: white; stroke-width: 15px;"/><rect x="1095" y="460" rx="4" width="100" height="65" class="djs-outline" style="fill: none;"/></g></g><g class="djs-group"><g class="djs-element djs-shape" data-element-id="Flow_1sayfdj_label" style="display: block;" transform="matrix(1 0 0 1 1132 523)"><g class="djs-visual"><text lineHeight="1.2" class="djs-label" style="font-family: Arial, sans-serif; font-size: 11px; font-weight: normal; fill: rgb(34, 36, 42);"><tspan x="0.46923828125" y="9.899999999999999">Có</tspan></text></g><rect class="djs-hit djs-hit-all" x="0" y="0" width="15" height="14" style="fill: none; stroke-opacity: 0; stroke: white; stroke-width: 15px;"/></g></g><g class="djs-group"><g class="djs-element djs-connection" data-element-id="Flow_06eavlq" style="display: block;"><g class="djs-visual"><defs><marker id="marker-c9rqbzmdfcgvx8yjcj16crq3c" viewBox="0 0 20 20" refX="11" refY="10" markerWidth="10" markerHeight="10" orient="auto"><path d="M 1 5 L 11 10 L 1 15 Z" style="stroke-linecap: round; stroke-linejoin: round; stroke: rgb(34, 36, 42); stroke-width: 1px; fill: rgb(34, 36, 42);"/></marker></defs><path data-corner-radius="5" style="fill: none; stroke-linecap: round; stroke-linejoin: round; stroke: rgb(34, 36, 42); stroke-width: 2px; marker-end: url('#marker-c9rqbzmdfcgvx8yjcj16crq3c');" d="M1290,520L1435,520C1437.5,520,1440,517.5,1440,515L1440,240"/></g><path d="M1290,520L1440,520L1440,240" class="djs-hit djs-hit-stroke" style="fill: none; stroke-opacity: 0; stroke: white; stroke-width: 15px;"/></g></g><g class="djs-group"><g class="djs-element djs-connection" data-element-id="Flow_192fpzb" style="display: block;"><g class="djs-visual"><defs><marker id="marker-5p3qtpqndl6b0enzlbs041b9h" viewBox="0 0 20 20" refX="11" refY="10" markerWidth="10" markerHeight="10" orient="auto"><path d="M 1 5 L 11 10 L 1 15 Z" style="stroke-linecap: round; stroke-linejoin: round; stroke: rgb(34, 36, 42); stroke-width: 1px; fill: rgb(34, 36, 42);"/></marker></defs><path data-corner-radius="5" style="fill: none; stroke-linecap: round; stroke-linejoin: round; stroke: rgb(34, 36, 42); stroke-width: 2px; marker-end: url('#marker-5p3qtpqndl6b0enzlbs041b9h');" d="M960,440L1075,440"/></g><path d="M960,440L1075,440" class="djs-hit djs-hit-stroke" style="fill: none; stroke-opacity: 0; stroke: white; stroke-width: 15px;"/></g></g><g class="djs-group"><g class="djs-element djs-connection" data-element-id="Flow_0akh0b6" style="display: block;"><g class="djs-visual"><defs><marker id="marker-3dd1t3i0n0izt59bc29sqoskc" viewBox="0 0 20 20" refX="11" refY="10" markerWidth="10" markerHeight="10" orient="auto"><path d="M 1 5 L 11 10 L 1 15 Z" style="stroke-linecap: round; stroke-linejoin: round; stroke: rgb(34, 36, 42); stroke-width: 1px; fill: rgb(34, 36, 42);"/></marker></defs><path data-corner-radius="5" style="fill: none; stroke-linecap: round; stroke-linejoin: round; stroke: rgb(34, 36, 42); stroke-width: 2px; marker-end: url('#marker-3dd1t3i0n0izt59bc29sqoskc');" d="M1490,200L1570,200"/></g><path d="M1490,200L1570,200" class="djs-hit djs-hit-stroke" style="fill: none; stroke-opacity: 0; stroke: white; stroke-width: 15px;"/></g></g><g class="djs-group"><g class="djs-element djs-connection" data-element-id="Flow_1fcq1j7" style="display: block;"><g class="djs-visual"><defs><marker id="marker-7uvotcwca3f0jh4os49vhflv4" viewBox="0 0 20 20" refX="11" refY="10" markerWidth="10" markerHeight="10" orient="auto"><path d="M 1 5 L 11 10 L 1 15 Z" style="stroke-linecap: round; stroke-linejoin: round; stroke: rgb(34, 36, 42); stroke-width: 1px; fill: rgb(34, 36, 42);"/></marker></defs><path data-corner-radius="5" style="fill: none; stroke-linecap: round; stroke-linejoin: round; stroke: rgb(34, 36, 42); stroke-width: 2px; marker-end: url('#marker-7uvotcwca3f0jh4os49vhflv4');" d="M2140,340L2140,125C2140,122.5,2137.5,120,2135,120L1625,120C1622.5,120,1620,122.5,1620,125L1620,160"/></g><path d="M2140,340L2140,120L1620,120L1620,160" class="djs-hit djs-hit-stroke" style="fill: none; stroke-opacity: 0; stroke: white; stroke-width: 15px;"/></g></g><g class="djs-group"><g class="djs-element djs-connection" data-element-id="Flow_1etk8ja" style="display: block;"><g class="djs-visual"><defs><marker id="marker-bozbf0o607e3x5v0iwuyyyvi5" viewBox="0 0 20 20" refX="11" refY="10" markerWidth="10" markerHeight="10" orient="auto"><path d="M 1 5 L 11 10 L 1 15 Z" style="stroke-linecap: round; stroke-linejoin: round; stroke: rgb(34, 36, 42); stroke-width: 1px; fill: rgb(34, 36, 42);"/></marker></defs><path data-corner-radius="5" style="fill: none; stroke-linecap: round; stroke-linejoin: round; stroke: rgb(34, 36, 42); stroke-width: 2px; marker-end: url('#marker-bozbf0o607e3x5v0iwuyyyvi5');" d="M1670,200L1745,200C1747.5,200,1750,202.5,1750,205L1750,400"/></g><path d="M1670,200L1750,200L1750,400" class="djs-hit djs-hit-stroke" style="fill: none; stroke-opacity: 0; stroke: white; stroke-width: 15px;"/></g></g><g class="djs-group"><g class="djs-element djs-connection" data-element-id="Flow_18r8j7b" style="display: block;"><g class="djs-visual"><defs><marker id="marker-eny6dj3bp7sp0zvp6ow6wyovc" viewBox="0 0 20 20" refX="11" refY="10" markerWidth="10" markerHeight="10" orient="auto"><path d="M 1 5 L 11 10 L 1 15 Z" style="stroke-linecap: round; stroke-linejoin: round; stroke: rgb(34, 36, 42); stroke-width: 1px; fill: rgb(34, 36, 42);"/></marker></defs><path data-corner-radius="5" style="fill: none; stroke-linecap: round; stroke-linejoin: round; stroke: rgb(34, 36, 42); stroke-width: 2px; marker-end: url('#marker-eny6dj3bp7sp0zvp6ow6wyovc');" d="M1800,440L1905,440"/></g><path d="M1800,440L1905,440" class="djs-hit djs-hit-stroke" style="fill: none; stroke-opacity: 0; stroke: white; stroke-width: 15px;"/></g></g><g class="djs-group"><g class="djs-element djs-connection" data-element-id="Flow_0mk632n" style="display: block;"><g class="djs-visual"><defs><marker id="marker-boy7uh4nmcxpdiryozh2y9y5x" viewBox="0 0 20 20" refX="11" refY="10" markerWidth="10" markerHeight="10" orient="auto"><path d="M 1 5 L 11 10 L 1 15 Z" style="stroke-linecap: round; stroke-linejoin: round; stroke: rgb(34, 36, 42); stroke-width: 1px; fill: rgb(34, 36, 42);"/></marker></defs><path data-corner-radius="5" style="fill: none; stroke-linecap: round; stroke-linejoin: round; stroke: rgb(34, 36, 42); stroke-width: 2px; marker-end: url('#marker-boy7uh4nmcxpdiryozh2y9y5x');" d="M1930,415L1930,385C1930,382.5,1932.5,380,1935,380L2090,380"/></g><path d="M1930,415L1930,380L2090,380" class="djs-hit djs-hit-stroke" style="fill: none; stroke-opacity: 0; stroke: white; stroke-width: 15px;"/></g></g><g class="djs-group"><g class="djs-element djs-shape" data-element-id="Flow_0mk632n_label" style="display: block;" transform="matrix(1 0 0 1 1964 363)"><g class="djs-visual"><text lineHeight="1.2" class="djs-label" style="font-family: Arial, sans-serif; font-size: 11px; font-weight: normal; fill: rgb(34, 36, 42);"><tspan x="0.09619140625" y="9.899999999999999">Không</tspan></text></g><rect class="djs-hit djs-hit-all" x="0" y="0" width="32" height="14" style="fill: none; stroke-opacity: 0; stroke: white; stroke-width: 15px;"/></g></g><g class="djs-group"><g class="djs-element djs-connection" data-element-id="Flow_02mu2bh" style="display: block;"><g class="djs-visual"><defs><marker id="marker-e7wld3055u4bsgcxp0ol9l2uh" viewBox="0 0 20 20" refX="11" refY="10" markerWidth="10" markerHeight="10" orient="auto"><path d="M 1 5 L 11 10 L 1 15 Z" style="stroke-linecap: round; stroke-linejoin: round; stroke: rgb(34, 36, 42); stroke-width: 1px; fill: rgb(34, 36, 42);"/></marker></defs><path data-corner-radius="5" style="fill: none; stroke-linecap: round; stroke-linejoin: round; stroke: rgb(34, 36, 42); stroke-width: 2px; marker-end: url('#marker-e7wld3055u4bsgcxp0ol9l2uh');" d="M1930,465L1930,535C1930,537.5,1932.5,540,1935,540L2090,540"/></g><path d="M1930,465L1930,540L2090,540" class="djs-hit djs-hit-stroke" style="fill: none; stroke-opacity: 0; stroke: white; stroke-width: 15px;"/></g></g><g class="djs-group"><g class="djs-element djs-shape" data-element-id="Flow_02mu2bh_label" style="display: block;" transform="matrix(1 0 0 1 1972 547)"><g class="djs-visual"><text lineHeight="1.2" class="djs-label" style="font-family: Arial, sans-serif; font-size: 11px; font-weight: normal; fill: rgb(34, 36, 42);"><tspan x="0.46923828125" y="9.899999999999999">Có</tspan></text></g><rect class="djs-hit djs-hit-all" x="0" y="0" width="15" height="14" style="fill: none; stroke-opacity: 0; stroke: white; stroke-width: 15px;"/></g></g><g class="djs-group"><g class="djs-element djs-connection" data-element-id="Flow_03fx017" style="display: block;"><g class="djs-visual"><defs><marker id="marker-a9zt7k9s6hxwqrmkr7squgtyb" viewBox="0 0 20 20" refX="11" refY="10" markerWidth="10" markerHeight="10" orient="auto"><path d="M 1 5 L 11 10 L 1 15 Z" style="stroke-linecap: round; stroke-linejoin: round; stroke: rgb(34, 36, 42); stroke-width: 1px; fill: rgb(34, 36, 42);"/></marker></defs><path data-corner-radius="5" style="fill: none; stroke-linecap: round; stroke-linejoin: round; stroke: rgb(34, 36, 42); stroke-width: 2px; marker-end: url('#marker-a9zt7k9s6hxwqrmkr7squgtyb');" d="M2190,540L2270,540"/></g><path d="M2190,540L2270,540" class="djs-hit djs-hit-stroke" style="fill: none; stroke-opacity: 0; stroke: white; stroke-width: 15px;"/></g></g><g class="djs-group"><g class="djs-element djs-connection" data-element-id="Flow_1ud0o7t" style="display: block;"><g class="djs-visual"><defs><marker id="marker-byrp7g6bajt3mbmu0aw5ps7ws" viewBox="0 0 20 20" refX="11" refY="10" markerWidth="10" markerHeight="10" orient="auto"><path d="M 1 5 L 11 10 L 1 15 Z" style="stroke-linecap: round; stroke-linejoin: round; stroke: rgb(34, 36, 42); stroke-width: 1px; fill: rgb(34, 36, 42);"/></marker></defs><path data-corner-radius="5" style="fill: none; stroke-linecap: round; stroke-linejoin: round; stroke: rgb(34, 36, 42); stroke-width: 2px; marker-end: url('#marker-byrp7g6bajt3mbmu0aw5ps7ws');" d="M2370,540L2472,540"/></g><path d="M2370,540L2472,540" class="djs-hit djs-hit-stroke" style="fill: none; stroke-opacity: 0; stroke: white; stroke-width: 15px;"/></g></g></g></g><g class="djs-group"><g class="djs-element djs-shape" data-element-id="TextAnnotation_1jnt4ga" style="display: block;" transform="matrix(1 0 0 1 960 520)"><g class="djs-visual"><rect x="0" y="0" width="109" height="86" rx="0" ry="0" style="stroke-linecap: round; stroke-linejoin: round; stroke: none; stroke-width: 2px; fill: none;"/><path d="m 0, 0 m 10,0 l -10,0 l 0,86 l 10,0" style="fill: none; stroke-linecap: round; stroke-linejoin: round; stroke: rgb(32, 80, 34); stroke-width: 2px;"/><text lineHeight="1.2" class="djs-label" style="font-family: Arial, sans-serif; font-size: 12px; font-weight: normal; fill: rgb(32, 80, 34);"><tspan x="7" y="17.799999999999997">Hạn chế tài </tspan><tspan x="7" y="32.199999999999996">khoản giả, người </tspan><tspan x="7" y="46.599999999999994">bán không đủ </tspan><tspan x="7" y="60.99999999999999">điều kiện, giấy </tspan><tspan x="7" y="75.39999999999999">tờ không hợp lệ</tspan></text></g><rect class="djs-hit djs-hit-all" x="0" y="0" width="109" height="86" style="fill: none; stroke-opacity: 0; stroke: white; stroke-width: 15px;"/></g></g><g class="djs-group"><g class="djs-element djs-shape" data-element-id="TextAnnotation_0qwsqj5" style="display: block;" transform="matrix(1 0 0 1 1580 510)"><g class="djs-visual"><rect x="0" y="0" width="103" height="86" rx="0" ry="0" style="stroke-linecap: round; stroke-linejoin: round; stroke: none; stroke-width: 2px; fill: none;"/><path d="m 0, 0 m 10,0 l -10,0 l 0,86 l 10,0" style="fill: none; stroke-linecap: round; stroke-linejoin: round; stroke: rgb(32, 80, 34); stroke-width: 2px;"/><text lineHeight="1.2" class="djs-label" style="font-family: Arial, sans-serif; font-size: 12px; font-weight: normal; fill: rgb(32, 80, 34);"><tspan x="7" y="17.799999999999997">Hạn chế sản </tspan><tspan x="7" y="32.199999999999996">phẩm không </tspan><tspan x="7" y="46.599999999999994">phù hợp, sai </tspan><tspan x="7" y="60.99999999999999">thông tin, vi </tspan><tspan x="7" y="75.39999999999999">phạm quy định</tspan></text></g><rect class="djs-hit djs-hit-all" x="0" y="0" width="103" height="86" style="fill: none; stroke-opacity: 0; stroke: white; stroke-width: 15px;"/></g></g><g class="djs-group"><g class="djs-element djs-connection" data-element-id="Association_0xjvoti" style="display: block;"><g class="djs-visual"><path data-corner-radius="5" style="fill: none; stroke-linecap: round; stroke-linejoin: round; stroke: rgb(34, 36, 42); stroke-width: 2px; stroke-dasharray: 0, 5;" d="M936,480L962,520"/></g><path d="M936,480L962,520" class="djs-hit djs-hit-stroke" style="fill: none; stroke-opacity: 0; stroke: white; stroke-width: 15px;"/></g></g><g class="djs-group"><g class="djs-element djs-connection" data-element-id="Association_0chulv5" style="display: block;"><g class="djs-visual"><path data-corner-radius="5" style="fill: none; stroke-linecap: round; stroke-linejoin: round; stroke: rgb(34, 36, 42); stroke-width: 2px; stroke-dasharray: 0, 5;" d="M1703,477L1663,510"/></g><path d="M1703,477L1663,510" class="djs-hit djs-hit-stroke" style="fill: none; stroke-opacity: 0; stroke: white; stroke-width: 15px;"/></g></g></svg>